<svg width="100" height="100" viewBox="0 0 100 100" fill="none" xmlns="http://www.w3.org/2000/svg">
<g clip-path="url(#clip0)">
<path d="M89.5313 12.5586C78.2422 3.06641 60.8008 4.49219 50 15.4883C39.1992 4.49219 21.7578 3.04687 10.4688 12.5586C-4.21873 24.9219 -2.07029 45.0781 8.39846 55.7617L42.6563 90.6641C44.6094 92.6563 47.2266 93.7695 50 93.7695C52.793 93.7695 55.3907 92.6758 57.3438 90.6836L91.6016 55.7813C102.051 45.0977 104.238 24.9414 89.5313 12.5586V12.5586ZM84.9219 49.1797L50.6641 84.082C50.1953 84.5508 49.8047 84.5508 49.336 84.082L15.0781 49.1797C7.94924 41.9141 6.50393 28.1641 16.5039 19.7461C24.1016 13.3594 35.8203 14.3164 43.1641 21.7969L50 28.7695L56.836 21.7969C64.2188 14.2773 75.9375 13.3594 83.4961 19.7266C93.4766 28.1445 91.9922 41.9727 84.9219 49.1797V49.1797Z" fill="#2A2927"/>
</g>
<defs>
<clipPath id="clip0">
<rect width="100" height="100" fill="white"/>
</clipPath>
</defs>
</svg>
